# Blender 3.5.0
# www.blender.org
mtllib saturn_ring.mtl
o Circle
v 0.000000 0.000000 9.105746
v 1.776443 0.000000 8.930781
v 3.484618 0.000000 8.412612
v 5.058882 0.000000 7.571151
v 0.000000 0.000000 5.000000
v 6.438735 0.000000 6.438735
v 7.571151 0.000000 5.058882
v 8.412612 0.000000 3.484618
v 8.930781 0.000000 1.776443
v 9.105746 0.000000 0.000000
v 8.930781 0.000000 -1.776443
v 8.412612 0.000000 -3.484618
v 7.571151 0.000000 -5.058882
v 6.438735 0.000000 -6.438735
v -0.975452 0.000000 4.903926
v 5.058882 0.000000 -7.571151
v 3.484618 0.000000 -8.412612
v 1.776443 0.000000 -8.930781
v 0.000000 0.000000 -9.105746
v -1.776443 0.000000 -8.930781
v -3.484618 0.000000 -8.412612
v -5.058882 0.000000 -7.571151
v -6.438735 0.000000 -6.438735
v -7.571151 0.000000 -5.058882
v -8.412612 0.000000 -3.484618
v -8.930781 0.000000 -1.776443
v -9.105746 0.000000 0.000000
v -8.930781 0.000000 1.776443
v -8.412612 0.000000 3.484618
v -7.571151 0.000000 5.058882
v -6.438735 0.000000 6.438735
v -1.913417 0.000000 4.619397
v -5.058882 0.000000 7.571151
v -3.484618 0.000000 8.412612
v -1.776443 0.000000 8.930781
v -2.777851 0.000000 4.157348
v -3.535534 0.000000 3.535533
v -4.157348 0.000000 2.777850
v -4.619397 0.000000 1.913416
v -4.903926 0.000000 0.975451
v -4.999999 0.000000 -0.000001
v -4.903925 0.000000 -0.975452
v -4.619396 0.000000 -1.913417
v -4.157346 0.000000 -2.777851
v -3.535532 0.000000 -3.535534
v -2.777849 0.000000 -4.157347
v -1.913415 0.000000 -4.619396
v -0.975450 0.000000 -4.903924
v 0.000002 0.000000 -4.999997
v 0.975453 0.000000 -4.903923
v 1.913418 0.000000 -4.619394
v 2.777851 0.000000 -4.157344
v 3.535532 0.000000 -3.535530
v 4.157346 0.000000 -2.777847
v 4.619395 0.000000 -1.913414
v 4.903923 0.000000 -0.975449
v 4.999996 0.000000 0.000002
v 4.903922 0.000000 0.975453
v 4.619392 0.000000 1.913418
v 4.157343 0.000000 2.777851
v 3.535529 0.000000 3.535532
v 2.777846 0.000000 4.157345
v 1.913413 0.000000 4.619393
v 0.975448 0.000000 4.903922
vn -0.0000 1.0000 -0.0000
vt 1.000000 0.450761
vt 1.000000 0.354177
vt 1.000000 0.263197
vt 1.000000 0.181316
vt 0.000000 0.472963
vt 1.000000 0.111683
vt 1.000000 0.056972
vt 1.000000 0.019287
vt 1.000000 0.000075
vt 1.000000 0.000075
vt 0.998563 0.000075
vt 1.000000 0.019287
vt 1.000000 0.056972
vt 1.000000 0.111683
vt 0.999996 0.181316
vt 0.000000 0.527037
vt 1.000004 0.263197
vt 1.000235 0.354177
vt 1.000000 0.354177
vt 1.000000 0.450762
vt 1.000000 0.549238
vt 1.000000 0.645823
vt 1.000000 0.736803
vt 1.000000 0.818684
vt 1.000000 0.888317
vt 1.000000 0.943028
vt 1.000000 0.992472
vt 1.000000 0.980713
vt 1.000000 0.999925
vt 1.000000 0.999925
vt 1.000000 0.980713
vt 1.000000 0.943028
vt 1.000000 0.888317
vt 1.000000 0.818684
vt 0.000000 0.580072
vt 1.000000 0.736803
vt 1.000000 0.645823
vt 1.000000 0.549238
vt 0.000000 0.630030
vt 0.000000 0.674990
vt 0.000000 0.713226
vt 0.000000 0.743268
vt 0.000000 0.763961
vt 0.000000 0.774511
vt 0.000000 0.774511
vt 0.000000 0.775720
vt 0.000000 0.763961
vt 0.000000 0.743268
vt 0.000000 0.713226
vt 0.000000 0.674990
vt 0.000000 0.630029
vt 0.000000 0.580072
vt 0.000000 0.527037
vt 0.000000 0.472963
vt 0.000000 0.419928
vt 0.000000 0.369970
vt 0.000000 0.325010
vt 0.000000 0.286774
vt 0.000000 0.256732
vt 0.000000 0.236039
vt 0.000000 0.225489
vt 0.000000 0.225490
vt 0.000000 0.236039
vt 0.000000 0.256732
vt 0.000000 0.286774
vt 0.000000 0.325010
vt 0.000000 0.369971
vt 0.000000 0.419928
s 0
usemtl Material.002
f 5/5/1 2/2/1 64/68/1
f 5/5/1 35/38/1 1/1/1
f 29/32/1 40/43/1 28/31/1
f 29/32/1 38/41/1 39/42/1
f 30/33/1 37/40/1 38/41/1
f 33/36/1 37/40/1 31/34/1
f 34/37/1 36/39/1 33/36/1
f 32/35/1 35/38/1 15/16/1
f 41/44/1 28/31/1 40/43/1
f 25/27/1 42/45/1 43/46/1
f 24/26/1 43/47/1 44/48/1
f 23/25/1 44/48/1 45/49/1
f 22/24/1 45/49/1 46/50/1
f 21/23/1 46/50/1 47/51/1
f 20/22/1 47/51/1 48/52/1
f 19/21/1 48/52/1 49/53/1
f 18/20/1 49/53/1 50/54/1
f 17/18/1 50/54/1 51/55/1
f 16/17/1 51/55/1 52/56/1
f 14/15/1 52/56/1 53/57/1
f 13/14/1 53/57/1 54/58/1
f 12/13/1 54/58/1 55/59/1
f 11/12/1 55/59/1 56/60/1
f 11/12/1 57/61/1 10/10/1
f 9/9/1 57/61/1 58/62/1
f 8/8/1 58/62/1 59/63/1
f 7/7/1 59/63/1 60/64/1
f 6/6/1 60/64/1 61/65/1
f 6/6/1 62/66/1 4/4/1
f 3/3/1 62/66/1 63/67/1
f 2/2/1 63/67/1 64/68/1
f 26/29/1 41/44/1 42/45/1
f 5/5/1 1/1/1 2/2/1
f 5/5/1 15/16/1 35/38/1
f 29/32/1 39/42/1 40/43/1
f 29/32/1 30/33/1 38/41/1
f 30/33/1 31/34/1 37/40/1
f 33/36/1 36/39/1 37/40/1
f 34/37/1 32/35/1 36/39/1
f 32/35/1 34/37/1 35/38/1
f 41/44/1 27/30/1 28/31/1
f 25/27/1 26/29/1 42/45/1
f 24/26/1 25/28/1 43/47/1
f 23/25/1 24/26/1 44/48/1
f 22/24/1 23/25/1 45/49/1
f 21/23/1 22/24/1 46/50/1
f 20/22/1 21/23/1 47/51/1
f 19/21/1 20/22/1 48/52/1
f 18/20/1 19/21/1 49/53/1
f 17/18/1 18/20/1 50/54/1
f 16/17/1 17/19/1 51/55/1
f 14/15/1 16/17/1 52/56/1
f 13/14/1 14/15/1 53/57/1
f 12/13/1 13/14/1 54/58/1
f 11/12/1 12/13/1 55/59/1
f 11/12/1 56/60/1 57/61/1
f 9/9/1 10/11/1 57/61/1
f 8/8/1 9/9/1 58/62/1
f 7/7/1 8/8/1 59/63/1
f 6/6/1 7/7/1 60/64/1
f 6/6/1 61/65/1 62/66/1
f 3/3/1 4/4/1 62/66/1
f 2/2/1 3/3/1 63/67/1
f 26/29/1 27/30/1 41/44/1
